# xmcd
#
# Track frame offsets:
#	150
#	15160
#	27576
#	41974
#	59609
#	75487
#	90181
#	105368
#	121494
#	136884
#	151787
#	166637
#	179846
#	199904
#
# Disc length: 2868 seconds
#
# Revision: 0
# Processed by: cddbd v1.5.1PL2 Copyright (c) Steve Scherf et al.
# Submitted via: EasyCDDAExtractor 8.0.2.1
#
DISCID=a90b320e
DTITLE=Various Artist - Mr Music Country  12 2005
DYEAR=2005
DGENRE=Country
TTITLE0=The Woodys - My train of thought
TTITLE1=Dale Watson - No help wanted
TTITLE2=Ed Bruce - Girls, women and ladies
TTITLE3=Chely Wright - It's the song
TTITLE4=Brad Paisley - You need a man around here
TTITLE5=Jill Johnson - Winter in July
TTITLE6=Billy Yates - Little Annie's Christmas wish
TTITLE7=Bill Anderson - Christmas in your arms
TTITLE8=Ray Knighton and Wanelle Collins - Fräulein medley
TTITLE9=Willie Nelson and Ray Price - Just call me lonesome
TTITLE10=Patty Loveless - Bluegrass, white snow
TTITLE11=Mike Merrell - Scene of the crime
TTITLE12=Caroline Herring - The way that you are
TTITLE13=Joe Paul Nichols - Waltz of the angels
EXTD=
EXTT0=
EXTT1=
EXTT2=
EXTT3=
EXTT4=
EXTT5=
EXTT6=
EXTT7=
EXTT8=
EXTT9=
EXTT10=
EXTT11=
EXTT12=
EXTT13=
PLAYORDER=
